<svg version="1.1" id="Layer_1" xmlns="http://www.w3.org/2000/svg" xmlns:xlink="http://www.w3.org/1999/xlink" x="0px" y="0px" viewBox="0 0 500 500" style="width: 188px;" xml:space="preserve" data-imageid="user-interface-1-72" imageName="User Interface 1" class="illustrations_image">
<style type="text/css">
	.st0_user-interface-1-72{fill:#FFFFFF;}
	.st1_user-interface-1-72{fill:#231F20;}
	.st2_user-interface-1-72{fill:#D1D3D4;}
	.st3_user-interface-1-72{fill:#68E1FD;}
</style>
<g id="Screen_user-interface-1-72">
	<path class="st0_user-interface-1-72" d="M374.2,107.8l-1.6,11.6L335,384.2H152.5l37.6-264.7l1.6-11.6c1.3-7.8,7.9-13.6,15.9-13.8h154.8&#10;&#9;&#9;C370,94,375.4,100.2,374.2,107.8L374.2,107.8z"/>
	<path class="st1_user-interface-1-72" d="M335,384.9H152.5c-0.4,0-0.7-0.3-0.7-0.7c0,0,0-0.1,0-0.1L191,107.7c1.3-8.2,8.3-14.2,16.5-14.5h154.8&#10;&#9;&#9;c3.7-0.1,7.3,1.5,9.7,4.3c2.5,2.9,3.5,6.7,2.9,10.4l-1.6,11.6l-37.6,264.7C335.7,384.6,335.4,384.9,335,384.9L335,384.9z&#10;&#9;&#9; M153.3,383.5h181.1l39.1-275.8l0,0c0.6-3.3-0.4-6.7-2.5-9.3c-2.2-2.5-5.4-3.8-8.7-3.8H207.6c-7.6,0.2-13.9,5.8-15.1,13.3&#10;&#9;&#9;l-1.6,11.6L153.3,383.5L153.3,383.5z"/>
	<path class="st2_user-interface-1-72" d="M269.9,231.3h-80.1c-0.4,0-0.7-0.3-0.7-0.7c0,0,0-0.1,0-0.1l11.8-83.2c0-0.3,0.3-0.6,0.7-0.6h80.1&#10;&#9;&#9;c0.4,0,0.7,0.3,0.7,0.7c0,0,0,0.1,0,0.1l-11.8,83.2C270.5,231.1,270.2,231.3,269.9,231.3z M190.6,229.9h78.6l11.6-81.9h-78.6&#10;&#9;&#9;L190.6,229.9L190.6,229.9z"/>
	<path class="st2_user-interface-1-72" d="M345.9,148.1h-42.8c-0.4,0-0.7-0.3-0.7-0.7s0.3-0.7,0.7-0.7c0,0,0,0,0,0h42.8c0.4,0,0.7,0.3,0.7,0.7&#10;&#9;&#9;S346.3,148.1,345.9,148.1C345.9,148.1,345.9,148.1,345.9,148.1z"/>
	<path class="st2_user-interface-1-72" d="M344.4,159.1h-42.8c-0.4,0-0.7-0.3-0.7-0.7s0.3-0.7,0.7-0.7c0,0,0,0,0,0h42.8c0.4,0,0.7,0.3,0.7,0.7&#10;&#9;&#9;C345,158.8,344.7,159.1,344.4,159.1z"/>
	<path class="st2_user-interface-1-72" d="M342.8,170.2H300c-0.4,0-0.7-0.3-0.7-0.7c0-0.4,0.3-0.7,0.7-0.7h42.8c0.4,0,0.7,0.3,0.7,0.7&#10;&#9;&#9;S343.1,170.2,342.8,170.2C342.8,170.2,342.8,170.2,342.8,170.2L342.8,170.2z"/>
	<path class="st2_user-interface-1-72" d="M341.2,181.3h-42.8c-0.4,0-0.7-0.3-0.7-0.7c0-0.4,0.3-0.7,0.7-0.7h42.8c0.4,0,0.7,0.3,0.7,0.7&#10;&#9;&#9;C341.9,181,341.6,181.3,341.2,181.3z"/>
	<path class="st2_user-interface-1-72" d="M339.6,192.4h-42.8c-0.4,0-0.7-0.3-0.7-0.7s0.3-0.7,0.7-0.7c0,0,0,0,0,0h42.8c0.4,0,0.7,0.3,0.7,0.7&#10;&#9;&#9;S340,192.4,339.6,192.4C339.6,192.4,339.6,192.4,339.6,192.4z"/>
	<path class="st2_user-interface-1-72" d="M325.7,203.5h-30.4c-0.4,0-0.7-0.3-0.7-0.7c0-0.4,0.3-0.7,0.7-0.7h30.4c0.4,0,0.7,0.3,0.7,0.7&#10;&#9;&#9;C326.4,203.2,326.1,203.5,325.7,203.5z"/>
	<path class="st2_user-interface-1-72" d="M331.7,230.6h-37.9c-3.7,0.1-6.7-2.8-6.8-6.5c0-0.5,0-0.9,0.1-1.4l0,0c0.7-4.4,4.5-7.7,9-7.9h37.9&#10;&#9;&#9;c3.7-0.1,6.7,2.8,6.8,6.5c0,0.5,0,0.9-0.1,1.4l0,0C339.9,227.2,336.2,230.5,331.7,230.6z"/>
	<path class="st2_user-interface-1-72" d="M225.1,340.1h-37.9c-3.7,0.1-6.7-2.8-6.8-6.5c0-0.5,0-0.9,0.1-1.4l0,0c0.7-4.4,4.5-7.7,9-7.9h37.9&#10;&#9;&#9;c3.7-0.1,6.7,2.8,6.8,6.5c0,0.5,0,0.9-0.1,1.4l0,0C233.4,336.7,229.6,340,225.1,340.1z"/>
	<path class="st2_user-interface-1-72" d="M311,340.1h-37.9c-3.7,0.1-6.7-2.8-6.8-6.5c0-0.5,0-0.9,0.1-1.4l0,0c0.7-4.4,4.5-7.7,9-7.9h37.8&#10;&#9;&#9;c3.7-0.1,6.7,2.8,6.8,6.5c0,0.5,0,0.9-0.1,1.4l0,0C319.2,336.6,315.5,339.9,311,340.1z"/>
	<path class="st2_user-interface-1-72" d="M241.9,314.3H178c-0.4,0-0.7-0.3-0.7-0.7c0,0,0-0.1,0-0.1l8.5-59.5c0-0.3,0.3-0.6,0.7-0.6h63.9&#10;&#9;&#9;c0.4,0,0.7,0.3,0.7,0.7c0,0,0,0.1,0,0.1l-8.4,59.6C242.5,314.1,242.2,314.3,241.9,314.3z M178.8,312.9h62.4l8.2-58.2h-62.4&#10;&#9;&#9;L178.8,312.9z"/>
	<path class="st2_user-interface-1-72" d="M327.7,314.3h-63.9c-0.4,0-0.7-0.3-0.7-0.7c0,0,0-0.1,0-0.1l8.5-59.5c0-0.3,0.3-0.6,0.7-0.6h63.9&#10;&#9;&#9;c0.4,0,0.7,0.3,0.7,0.7c0,0,0,0.1,0,0.1l-8.5,59.6C328.4,314.1,328.1,314.3,327.7,314.3z M264.7,312.9h62.5l8.2-58.2h-62.5&#10;&#9;&#9;L264.7,312.9z"/>
	<path class="st2_user-interface-1-72" d="M227.7,364.1c-0.9,0-1.7-0.4-2.2-1c-0.6-0.7-0.8-1.5-0.7-2.4c0.3-1.8,1.8-3.2,3.6-3.2c0.9,0,1.7,0.4,2.2,1&#10;&#9;&#9;c0.6,0.7,0.8,1.5,0.7,2.4C231,362.7,229.5,364.1,227.7,364.1z M228.4,358.9c-1.1,0.1-2.1,0.9-2.3,2c-0.1,0.5,0,0.9,0.3,1.3&#10;&#9;&#9;c0.3,0.3,0.7,0.5,1.2,0.5c1.1-0.1,2.1-0.9,2.3-2l0,0c0.1-0.5,0-0.9-0.3-1.3C229.3,359.1,228.8,358.9,228.4,358.9L228.4,358.9z"/>
	
		<ellipse transform="matrix(0.7317 -0.6816 0.6816 0.7317 -181.2155 261.2766)" class="st2_user-interface-1-72" cx="241.3" cy="360.8" rx="2.8" ry="2.4"/>
	
		<ellipse transform="matrix(0.7317 -0.6816 0.6816 0.7317 -177.6524 270.3223)" class="st2_user-interface-1-72" cx="254.6" cy="360.8" rx="2.8" ry="2.4"/>
	
		<ellipse transform="matrix(0.7317 -0.6816 0.6816 0.7317 -174.0952 279.3664)" class="st2_user-interface-1-72" cx="267.8" cy="360.8" rx="2.8" ry="2.4"/>
	<path class="st2_user-interface-1-72" d="M218.1,127.8h-10.6c-0.4,0-0.7-0.3-0.7-0.7c0-0.4,0.3-0.7,0.7-0.7h10.6c0.4,0,0.7,0.3,0.7,0.7&#10;&#9;&#9;C218.8,127.5,218.5,127.8,218.1,127.8z"/>
	<path class="st2_user-interface-1-72" d="M217.4,132.5h-10.6c-0.4,0-0.7-0.3-0.7-0.7c0-0.4,0.3-0.7,0.7-0.7c0,0,0,0,0,0h10.6c0.4,0,0.7,0.3,0.7,0.7&#10;&#9;&#9;C218.1,132.2,217.8,132.5,217.4,132.5C217.4,132.5,217.4,132.5,217.4,132.5z"/>
	<path class="st2_user-interface-1-72" d="M216.7,137.3h-10.6c-0.4,0-0.7-0.3-0.7-0.7c0-0.4,0.3-0.7,0.7-0.7h10.6c0.4,0,0.7,0.3,0.7,0.7&#10;&#9;&#9;C217.4,137,217.1,137.3,216.7,137.3L216.7,137.3z"/>
	<path class="st1_user-interface-1-72" d="M374.2,107.8l-1.6,11.6H190.1l1.6-11.6c1.3-7.8,7.9-13.6,15.9-13.8h154.8C370,94,375.4,100.2,374.2,107.8&#10;&#9;&#9;L374.2,107.8z"/>
	<path class="st2_user-interface-1-72" d="M287.4,107.4h-20.1c-0.4,0-0.7-0.3-0.7-0.7c0-0.4,0.3-0.7,0.7-0.7h20.1c0.4,0,0.7,0.3,0.7,0.7&#10;&#9;&#9;C288,107.1,287.7,107.4,287.4,107.4L287.4,107.4z"/>
	<path class="st2_user-interface-1-72" d="M297.5,107.4H294c-0.4,0-0.7-0.3-0.7-0.7c0-0.4,0.3-0.7,0.7-0.7h3.6c0.4,0,0.7,0.3,0.7,0.7&#10;&#9;&#9;C298.3,107.1,297.9,107.4,297.5,107.4L297.5,107.4z"/>
</g>
<g id="Character_user-interface-1-72">
	<path class="st0_user-interface-1-72" d="M188,198.9l13,13.5c0,0,23.6-25.7,23.8-28.9c0.5-5.4,2.6-11.7,4.8-16.7c0.1-0.3,0.3-0.6,0.6-0.8&#10;&#9;&#9;c0.7-0.3,1.3,0.8,1.4,1.5c0.2,1.9,0.2,3.8-0.1,5.8c2.3-3.2,4.7-6.4,7.2-9.6c0.2-0.3,0.5-0.5,0.9-0.6c0.3,0,0.5,0.1,0.7,0.3&#10;&#9;&#9;c1.5,1.3,2.7,3,3.4,4.9c0.4,1,0.7,2.1,0.7,3.2c0.1,6.2-5.4,16.2-11.2,18.8c0,0-26.8,45.9-31.6,45.4s-23.8-22-23.8-22L188,198.9&#10;&#9;&#9;L188,198.9z"/>
	<path class="st1_user-interface-1-72" d="M201.6,236.3h-0.1c-4.9-0.6-22.3-20-24.3-22.2c-0.2-0.2-0.2-0.6-0.1-0.9l10.3-14.8c0.1-0.2,0.3-0.3,0.5-0.3&#10;&#9;&#9;c0.2,0,0.4,0.1,0.6,0.2l12.5,12.9c9.1-9.9,23-25.8,23.1-28c0.6-6.5,3.3-13.4,4.8-16.9c0.2-0.5,0.5-0.9,1-1.2&#10;&#9;&#9;c0.4-0.2,0.8-0.1,1.2,0.1c0.6,0.5,1,1.2,1.1,2c0.1,1.1,0.2,2.3,0.1,3.4c1.9-2.6,3.8-5.1,5.7-7.6c0.3-0.5,0.8-0.8,1.4-0.9&#10;&#9;&#9;c0.4,0,0.9,0.2,1.2,0.5c1.6,1.4,2.9,3.2,3.6,5.2c0.4,1.1,0.7,2.3,0.8,3.4c0.1,6.2-5.2,16.4-11.4,19.3&#10;&#9;&#9;C228.9,198.9,206.7,236.3,201.6,236.3L201.6,236.3z M178.6,213.6c7.6,8.5,19.7,21,23,21.3h0.1c2.9,0,17.9-22.8,30.9-45&#10;&#9;&#9;c0.1-0.1,0.2-0.2,0.3-0.3c5.7-2.5,10.9-12.3,10.8-18.1c0-1-0.3-2-0.7-3c-0.6-1.8-1.7-3.4-3.1-4.6c-0.2-0.1-0.3-0.2-0.3-0.2&#10;&#9;&#9;s-0.1,0.1-0.3,0.3c-2.4,3.1-4.8,6.4-7.2,9.6c-0.2,0.3-0.5,0.4-0.8,0.2c-0.3-0.1-0.5-0.4-0.4-0.8c0.3-1.8,0.3-3.7,0.1-5.6&#10;&#9;&#9;c0-0.4-0.2-0.7-0.4-1c-0.1,0.1-0.2,0.3-0.2,0.4c-1.5,3.4-4.2,10.2-4.7,16.5c-0.3,3.3-20.1,25-24,29.3c-0.1,0.1-0.3,0.2-0.5,0.2&#10;&#9;&#9;c-0.2,0-0.4-0.1-0.5-0.2L188,200L178.6,213.6L178.6,213.6z"/>
	<path class="st0_user-interface-1-72" d="M96,391.9c0,0-4.6,12.5-2.6,13.7s42.2,0,39.8-2.4s-13.1-10.5-13.1-10.5"/>
	<path class="st1_user-interface-1-72" d="M102.7,406.7c-5.1,0-9-0.2-9.6-0.5c-2.2-1.3,0.5-9.6,2.2-14.5c0.1-0.4,0.5-0.6,0.9-0.4&#10;&#9;&#9;c0.4,0.1,0.6,0.5,0.4,0.9c-2.2,6.2-3.6,12.1-2.8,12.8c2.8,1.2,34.2-0.2,38.5-1.7c-3-2.7-12.6-9.9-12.7-10c-0.3-0.2-0.4-0.7-0.1-1&#10;&#9;&#9;c0.2-0.3,0.7-0.4,1-0.1c0,0,0,0,0,0c0.4,0.3,10.8,8.1,13.2,10.5c0.3,0.3,0.4,0.9,0.1,1.3C132.4,405.8,114.3,406.7,102.7,406.7&#10;&#9;&#9;L102.7,406.7z"/>
	<path class="st0_user-interface-1-72" d="M136.6,154.1c-1.9-0.1-3.8-0.4-6-0.6c-2.1-0.2-4.7-0.9-4.7-3c0-1.8,2.1-3.2,1.6-4.9c-0.2-0.5-0.4-0.9-0.7-1.2&#10;&#9;&#9;c-6.1-8.2-4.7-19.7,3.2-26.1c-0.6,0.1-1.1-0.3-1.2-0.9c0,0,0-0.1,0-0.1c0-0.6,0.2-1.2,0.7-1.7c1.5-1.7,3.5-2.9,5.7-3.5&#10;&#9;&#9;c6.9-2.1,14.4-2.1,21.3,0c5.3,1.6,11.7,5.8,11,12.2c-0.2,2.3-2.1,4.6-4.4,4.7c-1.2,6.9-4.8,11.6-9.3,16.6c-3,3.4-6.9,6-11.2,7.6&#10;&#9;&#9;C140.6,153.9,138.6,154.2,136.6,154.1L136.6,154.1z"/>
	<path class="st1_user-interface-1-72" d="M137.5,154.8c-0.3,0-0.6,0-0.9,0l0,0c-1.1-0.1-2.2-0.2-3.4-0.3c-0.8-0.1-1.7-0.2-2.6-0.3&#10;&#9;&#9;c-3.3-0.3-5.3-1.7-5.4-3.7c0.1-1,0.4-1.9,1-2.7c0.5-0.8,0.9-1.4,0.7-2.1c-0.1-0.3-0.3-0.6-0.5-0.9c-6.1-8.1-5.1-19.5,2.4-26.3&#10;&#9;&#9;c-0.3-0.3-0.5-0.7-0.6-1.2c0-0.8,0.3-1.6,0.8-2.2c1.6-1.8,3.7-3.1,6-3.7c7.1-2.2,14.6-2.2,21.7,0c6.2,1.8,12.2,6.6,11.5,13&#10;&#9;&#9;c-0.3,2.3-2,4.8-4.5,5.2c-1.4,7.1-5.4,12-9.4,16.4c-3.1,3.5-7.1,6.2-11.5,7.8C141.1,154.5,139.3,154.8,137.5,154.8L137.5,154.8z&#10;&#9;&#9; M129.9,117.5c0.3,0,0.5,0.1,0.7,0.4c0.2,0.3,0.1,0.7-0.1,0.9c-7.6,6.2-9,17.3-3.2,25.1c0.4,0.4,0.7,0.9,0.8,1.5&#10;&#9;&#9;c0.2,1.1-0.1,2.3-0.8,3.2c-0.4,0.6-0.7,1.2-0.8,1.9c0,1.9,3.4,2.2,4.1,2.3c0.9,0.1,1.8,0.2,2.6,0.3c1.2,0.1,2.2,0.3,3.3,0.3l0,0&#10;&#9;&#9;c1.9,0.1,3.9-0.2,5.7-0.8c4.2-1.5,7.9-4.1,10.9-7.4c5-5.5,8.1-9.9,9.2-16.2c0.1-0.3,0.3-0.6,0.7-0.6c2-0.1,3.5-2.2,3.7-4&#10;&#9;&#9;c0.7-6.4-6.3-10.2-10.5-11.5c-6.8-2.1-14.1-2.1-20.9,0c-2.1,0.5-3.9,1.6-5.4,3.2c-0.3,0.3-0.5,0.7-0.5,1.2c0,0.1,0.1,0.3,0.2,0.3&#10;&#9;&#9;C129.8,117.5,129.9,117.5,129.9,117.5L129.9,117.5z"/>
	<path class="st0_user-interface-1-72" d="M108,195.4c0,0-14.9,30.1-13.7,39.4s31.8,5.6,31.8,5.6l-1.6-45.8L108,195.4L108,195.4z"/>
	<path class="st1_user-interface-1-72" d="M113.5,241.8c-0.9,0-1.9,0-2.8,0c-10.7-0.4-16.4-2.7-17-6.9c-1.2-9.4,13.1-38.5,13.7-39.8&#10;&#9;&#9;c0.1-0.2,0.3-0.4,0.6-0.4l16.5-0.8c0.2,0,0.4,0.1,0.5,0.2c0.1,0.1,0.2,0.3,0.2,0.5l1.6,45.8c0,0.4-0.3,0.7-0.6,0.7&#10;&#9;&#9;C121.9,241.6,117.7,241.8,113.5,241.8z M108.5,196.1c-1.7,3.5-14.5,30.2-13.4,38.6c0.9,6.9,21.6,6.1,30.3,5.1l-1.6-44.5&#10;&#9;&#9;L108.5,196.1L108.5,196.1z"/>
	<path class="st0_user-interface-1-72" d="M167.1,386l0.8,19.6c0,0,36.7,0.3,34.6-2.4s-18.8-14.5-18.8-14.5l-2.7-14.5L167.1,386z"/>
	<path class="st1_user-interface-1-72" d="M172.6,406.3c-1.7,0-3.2,0-4.7,0c-0.4,0-0.7-0.3-0.7-0.7l-0.8-19.6c0-0.2,0.1-0.4,0.2-0.6l13.9-11.8&#10;&#9;&#9;c0.2-0.2,0.5-0.2,0.7-0.1c0.2,0.1,0.4,0.3,0.4,0.5l2.6,14.2c2.1,1.5,16.6,11.9,18.7,14.4c0.3,0.3,0.3,0.7,0.1,1.1&#10;&#9;&#9;C202.1,405.9,185.2,406.3,172.6,406.3L172.6,406.3z M168.6,404.9c14.7,0.1,30.4-0.5,33.1-1.6c-2.3-2.5-12.9-10.1-18.3-14&#10;&#9;&#9;c-0.1-0.1-0.2-0.3-0.3-0.4l-2.5-13.3l-12.8,10.8L168.6,404.9L168.6,404.9z"/>
	<path class="st1_user-interface-1-72" d="M173.7,248.6L188,391.4l-23.6,0.5l-26.8-100.9l-14.8,101.7l-27.3-1.3c0,0,4.8-56.8,7.2-78.4s6.3-59,6.3-59&#10;&#9;&#9;L173.7,248.6z"/>
	<path class="st0_user-interface-1-72" d="M164.9,139c0,0,4.9,8.1,3.8,9.7s-4.7,0.4-4.7,0.4"/>
	<path class="st1_user-interface-1-72" d="M166.6,150.2c-0.9,0-1.9-0.2-2.8-0.5c-0.4-0.1-0.5-0.6-0.4-0.9c0.1-0.3,0.5-0.5,0.8-0.4c1,0.3,3.3,0.8,3.9-0.1&#10;&#9;&#9;c0.4-0.7-1.3-4.9-3.8-8.9c-0.2-0.3-0.1-0.8,0.3-1c0.3-0.2,0.7-0.1,0.9,0.2c1.6,2.6,5,8.7,3.7,10.5&#10;&#9;&#9;C168.6,149.9,167.6,150.3,166.6,150.2L166.6,150.2z"/>
	<path class="st0_user-interface-1-72" d="M164.2,128.6c3.2,2.8,2,8.5,1.9,12.3c-0.2,5.2-0.6,10.5-1.1,15.7c-0.3,3.3-8.9,3-10.4,2l0.8,13.2l-17.8-7.6&#10;&#9;&#9;l1.2-15.1c0,0,5.7,0.3,9.3-6.4s3.9-17.1,3.9-17.1S161.1,125.8,164.2,128.6L164.2,128.6z"/>
	<path class="st1_user-interface-1-72" d="M155.4,172.4c-0.1,0-0.2,0-0.3-0.1l-17.8-7.6c-0.3-0.1-0.4-0.4-0.4-0.7l1.2-15.1c0-0.4,0.4-0.7,0.7-0.6&#10;&#9;&#9;c0.2,0,5.3,0.1,8.7-6c3.5-6.4,3.8-16.6,3.8-16.7c0-0.2,0.1-0.4,0.2-0.5c0.1-0.1,0.3-0.2,0.5-0.2c0.4,0,9.4,0.3,12.7,3.2l0,0&#10;&#9;&#9;c2.9,2.6,2.6,7.1,2.2,10.8c-0.1,0.7-0.1,1.4-0.1,2c-0.2,5.2-0.6,10.5-1.1,15.7c-0.2,1.2-1,2.1-2.1,2.5c-2.7,1-5.5,1.1-8.3,0.5&#10;&#9;&#9;l0.8,12.1c0,0.2-0.1,0.5-0.3,0.6C155.7,172.3,155.6,172.4,155.4,172.4L155.4,172.4z M138.4,163.6l16.3,7l-0.8-12&#10;&#9;&#9;c0-0.4,0.3-0.7,0.7-0.7c0.2,0,0.3,0,0.4,0.1c0.8,0.6,5.5,1,8-0.2c0.8-0.4,1.2-0.8,1.2-1.3c0.5-5.2,0.9-10.5,1.1-15.7&#10;&#9;&#9;c0-0.6,0.1-1.3,0.1-2.1c0.3-3.4,0.6-7.5-1.8-9.6l0,0c-2.4-2.2-9-2.7-11.1-2.8c-0.1,2.5-0.8,10.9-3.9,16.7s-7.6,6.6-9.3,6.7&#10;&#9;&#9;L138.4,163.6L138.4,163.6z"/>
	<path class="st3_user-interface-1-72 targetColor" d="M191.6,200c0,0-21.1-22.3-29.4-30.6c-7.7-7.8-30.3-14.8-40.5-3.7c0,0-16.9,23.5-20.1,37.2l9.8,6&#10;&#9;&#9;c-2.2,16.2-3.4,32.5-3.8,48.8c18.6,14.7,66.1-9.1,66.1-9.1l-4.3-33.5l7.7,7.7L191.6,200L191.6,200z" style="fill: rgb(104, 225, 253);"/>
	<path class="st0_user-interface-1-72" d="M165,152.6c0,0-4.2,2.3-6.2-1.9"/>
	<path class="st1_user-interface-1-72" d="M162.5,154c-0.5,0-0.9-0.1-1.4-0.2c-1.3-0.5-2.4-1.5-2.9-2.8c-0.2-0.4,0-0.8,0.3-0.9c0.4-0.2,0.8,0,0.9,0.3&#10;&#9;&#9;c0.4,0.9,1.1,1.6,2,2c1.1,0.3,2.2,0.1,3.1-0.4c0.3-0.2,0.8,0,0.9,0.3c0.1,0.3,0,0.7-0.3,0.9C164.4,153.7,163.5,154,162.5,154&#10;&#9;&#9;L162.5,154z"/>
	<path class="st0_user-interface-1-72" d="M154.8,142c-0.1-1.3-0.6-2.6-1.3-3.6c-0.5-0.9-1.1-1.7-1.8-2.4c-0.7-0.7-1.8-1.1-2.8-1&#10;&#9;&#9;c-0.9,0.2-1.7,0.8-2.1,1.6c-0.4,0.8-0.7,1.7-0.8,2.6c-0.3,4,1.5,7.9,4.8,10.2c-0.1-0.1-0.2-0.2-0.3-0.3"/>
	<path class="st1_user-interface-1-72" d="M150.8,149.9c-0.1,0-0.3,0-0.4-0.1c-3.5-2.4-5.5-6.6-5.1-10.8c0.1-1,0.4-2,0.9-2.9c0.6-1,1.5-1.7,2.6-1.9&#10;&#9;&#9;c1.2-0.2,2.5,0.3,3.4,1.1c0.8,0.8,1.4,1.6,1.9,2.6c0.8,1.2,1.3,2.6,1.4,4c0,0.4-0.3,0.7-0.7,0.7c-0.4,0-0.7-0.3-0.7-0.7&#10;&#9;&#9;c0,0,0,0,0,0c-0.1-1.2-0.5-2.3-1.2-3.3c-0.4-0.8-1-1.6-1.7-2.3c-0.6-0.6-1.4-0.9-2.2-0.8c-0.7,0.2-1.3,0.6-1.6,1.2&#10;&#9;&#9;c-0.4,0.7-0.6,1.5-0.7,2.3c-0.3,3.5,1.2,6.9,3.9,9.1c0.2,0,0.3,0.1,0.5,0.2l0.3,0.3c0.2,0.3,0.2,0.7,0,0.9&#10;&#9;&#9;C151.1,149.8,150.9,149.9,150.8,149.9L150.8,149.9z"/>
	<path class="st1_user-interface-1-72" d="M154.6,158.5c0,0-4.4-1.6-6.4-4.7c0,0,0,8,6.7,10.6L154.6,158.5L154.6,158.5z"/>
	<path class="st1_user-interface-1-72" d="M155,165.1c-0.1,0-0.2,0-0.2,0c-7.1-2.7-7.2-11.1-7.2-11.2c0-0.3,0.2-0.6,0.5-0.7c0.3-0.1,0.6,0,0.8,0.3&#10;&#9;&#9;c1.8,2.9,6,4.4,6,4.4c0.3,0.1,0.4,0.3,0.5,0.6l0.4,5.9c0,0.2-0.1,0.5-0.3,0.6C155.3,165.1,155.2,165.2,155,165.1L155,165.1z&#10;&#9;&#9; M149.2,156.1c0.5,3,2.3,5.7,5,7.2l-0.3-4.3C152.2,158.3,150.6,157.3,149.2,156.1L149.2,156.1z"/>
	<path class="st1_user-interface-1-72" d="M170,217.4c-0.2,0-0.4-0.1-0.5-0.2c-5.3-5.5-10.4-11.3-15.1-17.4c-0.2-0.3-0.2-0.7,0.1-1s0.7-0.2,1,0.1&#10;&#9;&#9;c0,0,0,0,0,0c4.7,6,9.7,11.8,15,17.3c0.3,0.3,0.3,0.7,0,1C170.4,217.3,170.2,217.4,170,217.4L170,217.4z"/>
	<path class="st0_user-interface-1-72" d="M137.2,289c-0.2,0-0.3-0.1-0.4-0.2c-0.4-0.3-8.7-7.4-8.7-18.6c0-0.4,0.3-0.7,0.7-0.7l0,0&#10;&#9;&#9;c0.4,0,0.7,0.3,0.7,0.7c0,10.5,8.1,17.5,8.2,17.5c0.3,0.2,0.3,0.7,0.1,1c0,0,0,0,0,0C137.6,288.9,137.4,289,137.2,289L137.2,289z"/>
	
		<ellipse transform="matrix(0.2047 -0.9788 0.9788 0.2047 -3.5107 266.2605)" class="st1_user-interface-1-72" cx="162.1" cy="135.3" rx="1.9" ry="0.7"/>
	<path class="st1_user-interface-1-72" d="M111.2,204.8h-0.1c-0.4-0.1-0.6-0.4-0.6-0.8c0.2-1,4.1-25.1,8.5-33.2c0.2-0.3,0.6-0.5,0.9-0.3&#10;&#9;&#9;c0.3,0.2,0.5,0.6,0.3,0.9l0,0c-4.3,7.8-8.3,32.5-8.4,32.7C111.9,204.5,111.6,204.8,111.2,204.8L111.2,204.8z"/>
</g>
<g id="Plants_user-interface-1-72">
	<path class="st1_user-interface-1-72" d="M374.8,313c0.2-2.6-0.4-5.3-1.6-7.6c-1-1.7-2.6-3-3.4-4.8c-1.5-3.1-0.4-6.8-0.8-10.2c-0.3-2.9-1.6-5.5-3.6-7.6&#10;&#9;&#9;c-1.8-1.8-4.1-3-5.8-4.9c-2.8-3.1-3.6-7.4-5.2-11.3c-2.3-5.4-6.2-10-11.1-13.1c3,6.1-3.9,13.9-0.8,20c1,1.9,2.9,3.3,3.6,5.4&#10;&#9;&#9;c1.8,4.9-4.1,10.2-2.2,15.1c0.9,2.4,3.5,3.9,4.8,6.2c1.6,3.1,0.4,6.9,0.5,10.4c0.2,4.9,3.1,9.2,6.6,12.6c2.2,2.1,4.6,3.9,7,5.8&#10;&#9;&#9;c2.8,2.3,4,4.6,6.5,1C372.8,324.9,374.7,319.1,374.8,313L374.8,313z"/>
	<path class="st1_user-interface-1-72" d="M378,315.8c-0.9-3.8-1.5-7.8,0-11.4c1.7-4,6-6.8,6.5-11.2c0.3-2.8-1.1-5.7-0.5-8.5s2.9-4.7,4.8-6.8&#10;&#9;&#9;c4.3-4.8,6.9-10.9,7.2-17.4c2.7,3.6,5.5,7.3,7,11.5s1.5,9.3-1,13c-0.7,0.9-1.3,1.8-1.8,2.9c-0.9,2.8,1.5,5.4,2.7,8&#10;&#9;&#9;c1.5,3.1,1.1,6.7-0.9,9.4c-2.5,3.1-7.3,4.3-8.5,8.1c-0.3,1.4-0.4,2.8-0.4,4.3c-0.5,5.1-4.1,9.4-9,10.8c-2.9,0.7-2.9-0.5-3.4-2.9&#10;&#9;&#9;C380.1,322.3,378.8,319.1,378,315.8L378,315.8z"/>
	<path class="st1_user-interface-1-72" d="M368.6,288.8c-2.1-7.2-2.9-14.8-5.1-21.9c-1.9-5.6-4.2-11.1-6.8-16.4l9,3.8c2.9,1.2,6,2.6,7.3,5.4&#10;&#9;&#9;c2.4,4.9-1.9,11.1,0.6,16c0.9,1.7,2.4,2.9,3.5,4.5c2.6,3.7,2.2,8.8,0.8,13.1c-0.6,1.9-3.3,11.4-5.8,8.8c-1-1.1-1-5-1.5-6.5&#10;&#9;&#9;C370,293.3,369.2,291.1,368.6,288.8L368.6,288.8z"/>
	<path class="st1_user-interface-1-72" d="M373.6,384.6c-1.8-11.8-7.4-53.4-7.4-53.8l1.4-0.2c0.1,0.4,5.6,42,7.4,53.8L373.6,384.6L373.6,384.6z"/>
	<path class="st1_user-interface-1-72" d="M375.5,395.8h-1.4c0.1-14,5.9-67.5,9.3-71.2l1,0.9C382.2,328,375.7,376.6,375.5,395.8z"/>
	<path class="st1_user-interface-1-72" d="M378.6,393.1l-1.4-0.1c1.3-30.2-5.1-93.6-5.1-94.2l1.4-0.1C373.5,299.3,379.9,362.8,378.6,393.1L378.6,393.1z"/>
	<path class="st0_user-interface-1-72" d="M358.2,350.9h33.3l-2.3,37.8c-0.4,6.5-5.3,11.6-11.1,11.6h-6.4c-5.9,0-10.7-5.1-11.1-11.6L358.2,350.9&#10;&#9;&#9;L358.2,350.9z"/>
	<path class="st1_user-interface-1-72" d="M378,401h-6.4c-6.2,0-11.4-5.4-11.8-12.3l-2.3-37.8c0-0.4,0.3-0.7,0.7-0.8c0,0,0,0,0.1,0h33.3&#10;&#9;&#9;c0.2,0,0.4,0.1,0.5,0.2c0.1,0.1,0.2,0.3,0.2,0.5l-2.3,37.8C389.5,395.6,384.3,401,378,401L378,401z M358.9,351.5l2.3,37.1&#10;&#9;&#9;c0.4,6.1,4.9,11,10.4,11h6.4c5.4,0,10-4.8,10.4-11l2.3-37.1H358.9z"/>
</g>
<g id="Floating_Screen_user-interface-1-72">
	<polygon class="st0_user-interface-1-72" points="391.6,219.9 323.1,219.9 338.6,104.7 407,104.7 &#9;"/>
	<path class="st1_user-interface-1-72" d="M391.6,220.6h-68.5c-0.4,0-0.7-0.3-0.7-0.7c0,0,0,0,0-0.1l15.4-115.2c0-0.3,0.3-0.6,0.7-0.6H407&#10;&#9;&#9;c0.4,0,0.7,0.3,0.7,0.7c0,0,0,0,0,0.1L392.3,220C392.3,220.3,392,220.6,391.6,220.6L391.6,220.6z M323.9,219.2H391l15.2-113.8&#10;&#9;&#9;h-67.1L323.9,219.2L323.9,219.2z"/>
	<path class="st3_user-interface-1-72 targetColor" d="M380,202.8h-39.3c-2.4,0.1-4.5-1.8-4.5-4.3c0-0.3,0-0.6,0.1-0.9l0.5-4c0.4-2.9,2.9-5.1,5.9-5.2H382&#10;&#9;&#9;c2.4-0.1,4.5,1.8,4.5,4.3c0,0.3,0,0.6-0.1,0.9l-0.5,4C385.5,200.5,383,202.7,380,202.8L380,202.8z" style="fill: rgb(104, 225, 253);"/>
	<path class="st0_user-interface-1-72" d="M382.9,181.6h-39.3c-2.4,0.1-4.5-1.8-4.5-4.3c0-0.3,0-0.6,0.1-0.9l0.5-4c0.4-2.9,2.9-5.1,5.9-5.2h39.3&#10;&#9;&#9;c2.4-0.1,4.5,1.8,4.5,4.3c0,0.3,0,0.6-0.1,0.9l-0.5,4C388.3,179.4,385.8,181.5,382.9,181.6z"/>
	<path class="st2_user-interface-1-72" d="M382.9,182.3h-39.3c-1.5,0-3-0.6-4-1.7c-1-1.2-1.4-2.7-1.2-4.2l0.5-4c0.5-3.2,3.3-5.7,6.5-5.8h39.3&#10;&#9;&#9;c1.5,0,3,0.6,4,1.7c1,1.2,1.4,2.7,1.2,4.2l-0.5,4C388.9,179.8,386.1,182.2,382.9,182.3L382.9,182.3z M345.5,168&#10;&#9;&#9;c-2.6,0.1-4.8,2-5.2,4.6l-0.5,4c-0.2,1.1,0.1,2.3,0.9,3.1c0.7,0.8,1.8,1.3,2.9,1.3h39.3c2.6-0.1,4.8-2,5.2-4.6l0.5-4&#10;&#9;&#9;c0.2-1.1-0.1-2.3-0.9-3.1c-0.7-0.8-1.8-1.3-2.9-1.3H345.5z"/>
	<path class="st0_user-interface-1-72" d="M385.7,160.5h-39.3c-2.4,0.1-4.5-1.8-4.5-4.3c0-0.3,0-0.6,0.1-0.9l0.5-4c0.4-2.9,2.9-5.1,5.9-5.2h39.3&#10;&#9;&#9;c2.4-0.1,4.5,1.8,4.5,4.3c0,0.3,0,0.6-0.1,0.9l-0.5,4C391.1,158.2,388.6,160.4,385.7,160.5z"/>
	<path class="st2_user-interface-1-72" d="M385.7,161.2h-39.3c-1.5,0-3-0.6-4-1.7c-1-1.2-1.4-2.7-1.2-4.2l0.5-4c0.5-3.2,3.3-5.7,6.5-5.8h39.3&#10;&#9;&#9;c1.5,0,3,0.6,4,1.7c1,1.2,1.4,2.7,1.2,4.2l-0.5,4C391.7,158.6,389,161.1,385.7,161.2z M348.3,146.8c-2.6,0.1-4.8,2-5.2,4.6l-0.5,4&#10;&#9;&#9;c-0.2,1.1,0.1,2.3,0.9,3.1c0.7,0.8,1.8,1.3,2.9,1.3h39.3c2.6-0.1,4.8-2,5.2-4.6l0.5-4c0.2-1.1-0.1-2.3-0.9-3.1&#10;&#9;&#9;c-0.7-0.8-1.8-1.3-2.9-1.3H348.3z"/>
	<path class="st0_user-interface-1-72" d="M388.5,139.3h-39.3c-2.4,0.1-4.5-1.8-4.5-4.3c0-0.3,0-0.6,0.1-0.9l0.5-4c0.4-2.9,2.9-5.1,5.9-5.2h39.3&#10;&#9;&#9;c2.4-0.1,4.5,1.8,4.5,4.3c0,0.3,0,0.6-0.1,0.9l-0.5,4C394,137,391.5,139.2,388.5,139.3L388.5,139.3z"/>
	<path class="st2_user-interface-1-72" d="M388.5,140h-39.3c-1.5,0-3-0.6-4-1.7c-1-1.2-1.4-2.7-1.2-4.2l0.5-4c0.5-3.2,3.3-5.7,6.5-5.8h39.3&#10;&#9;&#9;c1.5,0,3,0.6,4,1.7c1,1.2,1.4,2.7,1.2,4.2l-0.5,4C394.6,137.5,391.8,139.9,388.5,140L388.5,140z M351.1,125.7&#10;&#9;&#9;c-2.6,0.1-4.8,2-5.2,4.6l-0.5,4c-0.2,1.1,0.1,2.3,0.9,3.1c0.7,0.8,1.8,1.3,2.9,1.3h39.3c2.6-0.1,4.8-2,5.2-4.6l0.5-4&#10;&#9;&#9;c0.2-1.1-0.1-2.3-0.9-3.1c-0.7-0.8-1.8-1.3-2.9-1.3L351.1,125.7z"/>
	<path class="st2_user-interface-1-72" d="M387,116.2h-30.2c-0.4,0-0.7-0.3-0.7-0.7c0-0.4,0.3-0.7,0.7-0.7H387c0.4,0,0.7,0.3,0.7,0.7&#10;&#9;&#9;C387.7,115.9,387.4,116.2,387,116.2z"/>
</g>
</svg>